<svg width="40" height="40" viewBox="0 0 40 40" fill="none" xmlns="http://www.w3.org/2000/svg">
<path d="M20 40C14.4444 40 9.72222 38.0556 5.83333 34.1667C1.94444 30.2778 0 25.5556 0 20C0 14.4444 1.94444 9.72222 5.83333 5.83333C9.72222 1.94444 14.4444 0 20 0C20.5185 0 21.0281 0.0185187 21.5289 0.0555558C22.0296 0.0925928 22.52 0.148148 23 0.222222C21.4815 1.2963 20.2681 2.69481 19.36 4.41778C18.4519 6.14074 17.9985 8.00148 18 10C18 13.3333 19.1667 16.1667 21.5 18.5C23.8333 20.8333 26.6667 22 30 22C32.037 22 33.9074 21.5459 35.6111 20.6378C37.3148 19.7296 38.7037 18.517 39.7778 17C39.8519 17.4815 39.9074 17.9719 39.9444 18.4711C39.9815 18.9704 40 19.48 40 20C40 25.5556 38.0556 30.2778 34.1667 34.1667C30.2778 38.0556 25.5556 40 20 40Z" fill="currentColor"/>
</svg>
