<svg width="40" height="40" viewBox="0 0 41 41" fill="none" xmlns="http://www.w3.org/2000/svg">
<path d="M19.1333 5.46667V1.36667C19.1333 1.0042 19.2773 0.656587 19.5336 0.400287C19.7899 0.143988 20.1375 0 20.5 0C20.8625 0 21.2101 0.143988 21.4664 0.400287C21.7227 0.656587 21.8667 1.0042 21.8667 1.36667V5.46667C21.8667 5.82913 21.7227 6.17675 21.4664 6.43305C21.2101 6.68935 20.8625 6.83333 20.5 6.83333C20.1375 6.83333 19.7899 6.68935 19.5336 6.43305C19.2773 6.17675 19.1333 5.82913 19.1333 5.46667ZM20.5 9.56667C18.3376 9.56667 16.2237 10.2079 14.4258 11.4093C12.6278 12.6106 11.2264 14.3182 10.3989 16.316C9.5714 18.3138 9.35488 20.5121 9.77675 22.633C10.1986 24.7538 11.2399 26.702 12.769 28.231C14.298 29.7601 16.2462 30.8014 18.367 31.2233C20.4879 31.6451 22.6862 31.4286 24.684 30.6011C26.6818 29.7736 28.3894 28.3722 29.5907 26.5742C30.7921 24.7763 31.4333 22.6624 31.4333 20.5C31.4302 17.6013 30.2773 14.8222 28.2275 12.7725C26.1778 10.7228 23.3987 9.56983 20.5 9.56667ZM8.59975 10.5336C8.85619 10.79 9.204 10.9341 9.56667 10.9341C9.92933 10.9341 10.2771 10.79 10.5336 10.5336C10.79 10.2771 10.9341 9.92933 10.9341 9.56667C10.9341 9.204 10.79 8.85619 10.5336 8.59975L7.80025 5.86642C7.54381 5.60997 7.196 5.46591 6.83333 5.46591C6.47067 5.46591 6.12286 5.60997 5.86642 5.86642C5.60997 6.12286 5.46591 6.47067 5.46591 6.83333C5.46591 7.196 5.60997 7.54381 5.86642 7.80025L8.59975 10.5336ZM8.59975 30.4664L5.86642 33.1997C5.60997 33.4562 5.46591 33.804 5.46591 34.1667C5.46591 34.5293 5.60997 34.8771 5.86642 35.1336C6.12286 35.39 6.47067 35.5341 6.83333 35.5341C7.196 35.5341 7.54381 35.39 7.80025 35.1336L10.5336 32.4003C10.6606 32.2733 10.7613 32.1225 10.83 31.9566C10.8987 31.7907 10.9341 31.6129 10.9341 31.4333C10.9341 31.2538 10.8987 31.0759 10.83 30.91C10.7613 30.7441 10.6606 30.5934 10.5336 30.4664C10.4066 30.3394 10.2559 30.2387 10.09 30.17C9.92405 30.1013 9.74624 30.0659 9.56667 30.0659C9.38709 30.0659 9.20928 30.1013 9.04337 30.17C8.87747 30.2387 8.72673 30.3394 8.59975 30.4664ZM31.4333 10.9333C31.6129 10.9335 31.7907 10.8982 31.9566 10.8297C32.1225 10.7611 32.2732 10.6605 32.4003 10.5336L35.1336 7.80025C35.39 7.54381 35.5341 7.196 35.5341 6.83333C35.5341 6.47067 35.39 6.12286 35.1336 5.86642C34.8771 5.60997 34.5293 5.46591 34.1667 5.46591C33.804 5.46591 33.4562 5.60997 33.1997 5.86642L30.4664 8.59975C30.2751 8.79089 30.1447 9.0345 30.0919 9.29975C30.0391 9.565 30.0662 9.83996 30.1697 10.0898C30.2732 10.3397 30.4485 10.5532 30.6735 10.7034C30.8984 10.8535 31.1629 10.9335 31.4333 10.9333ZM32.4003 30.4664C32.1438 30.21 31.796 30.0659 31.4333 30.0659C31.0707 30.0659 30.7229 30.21 30.4664 30.4664C30.21 30.7229 30.0659 31.0707 30.0659 31.4333C30.0659 31.796 30.21 32.1438 30.4664 32.4003L33.1997 35.1336C33.3267 35.2606 33.4775 35.3613 33.6434 35.43C33.8093 35.4987 33.9871 35.5341 34.1667 35.5341C34.3462 35.5341 34.5241 35.4987 34.69 35.43C34.8559 35.3613 35.0066 35.2606 35.1336 35.1336C35.2606 35.0066 35.3613 34.8559 35.43 34.69C35.4987 34.5241 35.5341 34.3462 35.5341 34.1667C35.5341 33.9871 35.4987 33.8093 35.43 33.6434C35.3613 33.4775 35.2606 33.3267 35.1336 33.1997L32.4003 30.4664ZM6.83333 20.5C6.83333 20.1375 6.68935 19.7899 6.43305 19.5336C6.17675 19.2773 5.82913 19.1333 5.46667 19.1333H1.36667C1.0042 19.1333 0.656587 19.2773 0.400287 19.5336C0.143988 19.7899 0 20.1375 0 20.5C0 20.8625 0.143988 21.2101 0.400287 21.4664C0.656587 21.7227 1.0042 21.8667 1.36667 21.8667H5.46667C5.82913 21.8667 6.17675 21.7227 6.43305 21.4664C6.68935 21.2101 6.83333 20.8625 6.83333 20.5ZM20.5 34.1667C20.1375 34.1667 19.7899 34.3107 19.5336 34.567C19.2773 34.8233 19.1333 35.1709 19.1333 35.5333V39.6333C19.1333 39.9958 19.2773 40.3434 19.5336 40.5997C19.7899 40.856 20.1375 41 20.5 41C20.8625 41 21.2101 40.856 21.4664 40.5997C21.7227 40.3434 21.8667 39.9958 21.8667 39.6333V35.5333C21.8667 35.1709 21.7227 34.8233 21.4664 34.567C21.2101 34.3107 20.8625 34.1667 20.5 34.1667ZM39.6333 19.1333H35.5333C35.1709 19.1333 34.8233 19.2773 34.567 19.5336C34.3107 19.7899 34.1667 20.1375 34.1667 20.5C34.1667 20.8625 34.3107 21.2101 34.567 21.4664C34.8233 21.7227 35.1709 21.8667 35.5333 21.8667H39.6333C39.9958 21.8667 40.3434 21.7227 40.5997 21.4664C40.856 21.2101 41 20.8625 41 20.5C41 20.1375 40.856 19.7899 40.5997 19.5336C40.3434 19.2773 39.9958 19.1333 39.6333 19.1333Z" fill="currentColor"/>
</svg>
